<svg width="44" height="44" viewBox="0 0 44 44" fill="none" xmlns="http://www.w3.org/2000/svg">
<path d="M21.6667 4.33333C12.0937 4.33333 4.33333 12.0937 4.33333 21.6667C4.33333 31.2396 12.0937 39 21.6667 39C31.2396 39 39 31.2396 39 21.6667C39 12.0937 31.2396 4.33333 21.6667 4.33333ZM0 21.6667C0 9.7005 9.7005 0 21.6667 0C33.6328 0 43.3333 9.7005 43.3333 21.6667C43.3333 33.6328 33.6328 43.3333 21.6667 43.3333C9.7005 43.3333 0 33.6328 0 21.6667ZM31.7728 14.6306C32.6672 15.4256 32.7477 16.7951 31.9527 17.6895L20.3972 30.6895C19.986 31.152 19.3967 31.4167 18.7778 31.4167C18.1589 31.4167 17.5696 31.152 17.1584 30.6895L11.3806 24.1895C10.5856 23.2951 10.6662 21.9256 11.5605 21.1306C12.4549 20.3356 13.8244 20.4162 14.6194 21.3105L18.7778 25.9887L28.7139 14.8105C29.5089 13.9162 30.8784 13.8356 31.7728 14.6306Z" fill="#002D72"/>
</svg>
