<svg width="220" height="108" viewBox="0 0 220 108" fill="none" xmlns="http://www.w3.org/2000/svg">
<path d="M110.031 87.1C159.166 87.1 198.998 72.2741 198.998 53.9855C198.998 35.6969 159.166 20.8711 110.031 20.8711C60.8956 20.8711 21.0637 35.6969 21.0637 53.9855C21.0637 72.2741 60.8956 87.1 110.031 87.1Z" fill="#002D72"/>
<path d="M38.1007 64.052V48.278C38.1007 47.2571 37.4848 46.8034 36.6872 46.8034C35.8169 46.8034 35.0193 47.3706 34.0763 48.089V64.0538H30.0156V43.7012H33.8601V45.7429C35.5644 44.2305 36.4347 43.3213 38.3569 43.3213C40.3882 43.3213 41.0404 44.0775 41.9107 45.7429C43.8693 43.775 44.9558 43.3213 46.4438 43.3213C48.982 43.3213 50.252 44.9471 50.252 47.5956V64.052H46.1913V48.278C46.1913 47.2571 45.539 46.8034 44.7414 46.8034C43.8711 46.8034 43.0735 47.3706 42.1669 48.089V64.0538H38.1062L38.1007 64.052Z" fill="white"/>
<path d="M51.5892 49.677C51.8072 45.5539 54.309 43.3213 58.1172 43.3213C61.9254 43.3213 64.0275 45.138 64.0275 48.8452V61.8968C64.0275 62.5396 64.1729 63.3714 64.2819 64.0538H60.4029C60.3665 63.4867 60.2212 62.9573 60.1848 62.4658C58.6623 63.7513 57.3923 64.4319 55.4337 64.4319C52.6775 64.4319 51.3003 62.4658 51.3003 59.8551C51.3003 55.3917 54.1292 52.9323 59.9668 50.624V49.4141C59.9668 47.7127 59.3145 46.8034 57.9719 46.8034C56.1223 46.8034 55.7244 47.9377 55.6517 49.6788H51.591L51.5892 49.677ZM59.965 53.7245C56.2658 55.9192 55.3592 57.3182 55.3592 59.0953C55.3592 60.4186 56.0115 60.9498 57.2451 60.9498C58.3698 60.9498 59.2764 60.0802 59.965 59.0575V53.7245Z" fill="white"/>
<path d="M65.0777 47.1815V43.7012H67.3252V38.2151H71.3859V43.7012H74.1058V47.1815H71.3859V58.908C71.3859 59.9667 71.822 60.5716 72.7631 60.5716H74.104V64.2032C73.5607 64.3545 73.0884 64.4301 72.0727 64.4301C69.0276 64.4301 67.3234 62.9555 67.3234 59.8533V47.1797H65.0759L65.0777 47.1815Z" fill="white"/>
<path d="M73.7079 47.1815V43.7012H75.9554V38.2151H80.0161V43.7012H82.7359V47.1815H80.0161V58.908C80.0161 59.9667 80.4521 60.5716 81.3933 60.5716H82.7341V64.2032C82.1909 64.3545 81.7185 64.4301 80.7029 64.4301C77.6578 64.4301 75.9535 62.9555 75.9535 59.8533V47.1797H73.7061L73.7079 47.1815Z" fill="white"/>
<path d="M84.2239 49.677C84.442 45.5539 86.9438 43.3213 90.752 43.3213C94.5602 43.3213 96.6623 45.138 96.6623 48.8452V61.8968C96.6623 62.5396 96.8076 63.3714 96.9166 64.0538H93.0376C93.0013 63.4867 92.8559 62.9573 92.8196 62.4658C91.297 63.7513 90.0271 64.4319 88.0685 64.4319C85.3123 64.4319 83.9351 62.4658 83.9351 59.8551C83.9351 55.3917 86.7639 52.9323 92.6016 50.624V49.4141C92.6016 47.7127 91.9493 46.8034 90.6066 46.8034C88.7571 46.8034 88.3592 47.9377 88.2865 49.6788H84.2258L84.2239 49.677ZM92.5998 53.7245C88.9006 55.9192 87.994 57.3182 87.994 59.0953C87.994 60.4186 88.6462 60.9498 89.8799 60.9498C91.0045 60.9498 91.9112 60.0802 92.5998 59.0575V53.7245Z" fill="white"/>
<path d="M106.67 64.052V48.278C106.67 47.2571 106.054 46.8034 105.256 46.8034C104.386 46.8034 103.588 47.3706 102.645 48.089V64.0538H98.5845V43.7012H102.429V45.7429C104.133 44.2305 105.003 43.3213 106.926 43.3213C108.957 43.3213 109.609 44.0775 110.48 45.7429C112.438 43.775 113.525 43.3213 115.013 43.3213C117.551 43.3213 118.821 44.9471 118.821 47.5956V64.052H114.76V48.278C114.76 47.2571 114.108 46.8034 113.31 46.8034C112.44 46.8034 111.642 47.3706 110.736 48.089V64.0538H106.675L106.67 64.052Z" fill="white"/>
<path d="M129.006 43.7013H133.103L127.991 65.5663C127.12 69.2735 125.489 70.4456 122.442 70.4456H120.738V66.9653H121.717C123.748 66.9653 124.401 65.831 124.401 63.674C124.401 62.8422 124.219 61.9707 123.966 60.9877L119.724 43.6995H123.857L126.468 56.7133H126.541L129.006 43.6995V43.7013Z" fill="white"/>
<path d="M135.91 43.6941V52.4912H141.643V43.6941H143.752V64.0521H141.643V54.3529H135.91V64.0521H133.801V43.6941H135.91Z" fill="#97999B"/>
<path d="M150.129 64.3347C146.832 64.3347 144.613 61.4593 144.613 53.8739C144.613 46.2885 146.83 43.4131 150.129 43.4131C153.429 43.4131 155.645 46.2885 155.645 53.8739C155.645 61.4593 153.429 64.3347 150.129 64.3347ZM150.129 45.273C148.236 45.273 146.723 46.9654 146.723 53.8739C146.723 60.7823 148.236 62.4748 150.129 62.4748C152.023 62.4748 153.536 60.7823 153.536 53.8739C153.536 46.9654 152.023 45.273 150.129 45.273Z" fill="#97999B"/>
<path d="M160.133 43.6941L163.54 59.09H163.594L166.919 43.6941H170.271V64.0521H168.325V45.3847H168.271L164.216 64.0521H162.837L158.781 45.3847H158.727V64.0521H156.781V43.6941H160.133Z" fill="#97999B"/>
<path d="M180.869 43.6941V45.5558H174.056V52.493H179.085V54.3547H174.056V62.194H181.194V64.0557H171.948V43.6977H180.871L180.869 43.6941Z" fill="#97999B"/>
<path d="M188.762 48.9388C188.6 46.8521 187.788 45.2731 185.76 45.2731C184.138 45.2731 183.084 46.4002 183.084 47.9522C183.084 52.5488 190.926 52.6046 190.926 59.1458C190.926 62.3884 189.141 64.3348 185.924 64.3348C182.706 64.3348 181.031 61.9941 180.976 58.5822H182.922C182.977 60.9787 184.058 62.4731 186.14 62.4731C187.897 62.4731 189.032 61.2883 189.032 59.117C189.032 54.4915 181.191 53.9568 181.191 48.1484C181.191 45.2731 183.084 43.4114 185.895 43.4114C188.705 43.4114 190.546 45.3847 190.708 48.9388H188.762Z" fill="#97999B"/>
</svg>
