<svg width="64" height="64" viewBox="0 0 64 64" fill="none" xmlns="http://www.w3.org/2000/svg">
<path d="M59.2102 25.7699L31.3502 13.7399C31.1702 13.6599 30.9602 13.6599 30.7702 13.7399L3.13017 25.2799C2.86017 25.3899 2.68017 25.6599 2.67017 25.9599C2.67017 26.2599 2.84017 26.5299 3.12017 26.6399L15.1402 31.8299V42.6599C15.1402 42.7499 15.1802 44.8699 17.3202 46.9399C20.0402 49.5599 24.8002 50.8999 31.4302 50.8999C38.0602 50.8999 42.8202 49.5699 45.5402 46.9399C47.6802 44.8699 47.7202 42.7499 47.7202 42.6599V31.9199L51.7402 30.2399V45.8899C52.2302 45.8899 52.7302 45.9099 53.2202 45.9299V29.6199L59.2002 27.1199C59.4702 27.0099 59.6502 26.7399 59.6602 26.4399C59.6602 26.1399 59.4902 25.8699 59.2102 25.7599V25.7699ZM46.2402 42.6599C46.2402 42.7299 46.1702 44.3299 44.4102 45.9699C42.7202 47.5399 39.0802 49.4199 31.4202 49.4199C23.7602 49.4199 20.1302 47.5499 18.4402 45.9699C16.6802 44.3299 16.6102 42.7199 16.6102 42.6599V32.4699L30.9602 38.6699C31.0502 38.7099 31.1502 38.7299 31.2502 38.7299C31.3502 38.7299 31.4402 38.7099 31.5402 38.6699L46.2302 32.5299V42.6399L46.2402 42.6599ZM52.0302 28.5299L34.2702 25.9199C34.2502 26.4199 34.2402 26.9199 34.2402 27.4099L49.3702 29.6399L31.2702 37.1999L5.31017 25.9799L31.0602 15.2199L57.0302 26.4399L52.0402 28.5299H52.0302Z" fill="#0063C6" stroke="#0063C6" stroke-width="1.1" stroke-miterlimit="10"/>
<path d="M31.4401 51.03C24.76 51.03 19.98 49.69 17.24 47.04C15.04 44.92 15.02 42.76 15.02 42.67V31.92L3.07005 26.76C2.75005 26.62 2.55005 26.31 2.55005 25.96C2.55005 25.61 2.76005 25.3 3.08005 25.17L30.73 13.62C30.95 13.53 31.1901 13.53 31.41 13.62L59.26 25.66C59.58 25.8 59.78 26.11 59.78 26.46C59.78 26.81 59.57 27.12 59.25 27.25L53.35 29.71V46.07H53.2201C52.7201 46.04 52.2301 46.03 51.7401 46.02H51.62V30.43L47.85 32V42.66C47.85 42.75 47.82 44.91 45.6301 47.03C42.89 49.68 38.1101 51.02 31.4401 51.02V51.03ZM31.06 13.8C30.98 13.8 30.9 13.82 30.82 13.85L3.18005 25.4C2.95005 25.5 2.80005 25.72 2.80005 25.96C2.80005 26.21 2.94005 26.43 3.17005 26.53L15.26 31.76V42.67C15.26 42.67 15.28 44.81 17.41 46.86C20.1 49.46 24.82 50.78 31.43 50.78C38.0401 50.78 42.7601 49.46 45.4501 46.86C47.57 44.82 47.59 42.69 47.59 42.67V31.85L51.8601 30.07V45.78C52.2601 45.78 52.68 45.79 53.09 45.81V29.55L59.14 27.02C59.37 26.92 59.5201 26.7 59.5201 26.46C59.5201 26.21 59.3801 25.99 59.1501 25.89L31.31 13.85C31.23 13.82 31.15 13.8 31.07 13.8H31.06ZM31.43 49.55C23.7201 49.55 20.07 47.66 18.37 46.07C16.55 44.38 16.5 42.69 16.5 42.67V32.29L16.67 32.37L31.0201 38.57C31.17 38.64 31.35 38.64 31.5 38.57L46.3601 32.36V42.66C46.3601 42.66 46.34 44.34 44.4901 46.07C42.7901 47.66 39.1301 49.55 31.42 49.55H31.43ZM16.75 32.67V42.67C16.75 42.67 16.81 44.28 18.54 45.88C20.21 47.44 23.8101 49.29 31.43 49.29C39.05 49.29 42.6601 47.43 44.3301 45.88C46.0601 44.27 46.12 42.67 46.12 42.66V32.74L31.6101 38.8C31.4001 38.89 31.15 38.89 30.93 38.8L16.75 32.67ZM31.2801 37.33L31.23 37.31L4.99005 25.97L31.06 15.08L31.1101 15.1L57.35 26.44L52.05 28.65H52.0201L34.4001 26.05C34.3901 26.44 34.38 26.85 34.37 27.29L49.84 29.56L49.42 29.73L31.2701 37.31L31.2801 37.33ZM5.63005 25.98L31.2801 37.06L48.91 29.69L34.12 27.51V27.4C34.12 26.86 34.1301 26.37 34.1501 25.9V25.76L34.2901 25.78L52.01 28.39L56.7001 26.43L31.05 15.36L5.63005 25.98Z" fill="#0063C6" stroke="#0063C6" stroke-width="1.1" stroke-miterlimit="10"/>
<path d="M31.63 29.86C29.89 29.86 28.47 28.44 28.47 26.7C28.47 24.96 29.89 23.54 31.63 23.54C33.37 23.54 34.79 24.96 34.79 26.7C34.79 28.44 33.37 29.86 31.63 29.86ZM31.63 26.03C31.26 26.03 30.97 26.33 30.97 26.69C30.97 27.05 31.27 27.35 31.63 27.35C31.99 27.35 32.29 27.05 32.29 26.69C32.29 26.33 31.99 26.03 31.63 26.03Z" fill="#50C2CC" stroke="#50C2CC" stroke-width="0.5" stroke-miterlimit="10"/>
<path d="M52.9201 51.61H52.0801C51.1501 51.61 50.3201 51.13 49.8601 50.33C49.4001 49.53 49.4001 48.57 49.8601 47.77L50.2801 47.04C50.7401 46.24 51.5701 45.76 52.5001 45.76C53.4301 45.76 54.2601 46.24 54.7201 47.04L55.1401 47.77C55.6001 48.57 55.6001 49.53 55.1401 50.33C54.6801 51.13 53.8501 51.61 52.9201 51.61ZM51.3601 47.66L52.4401 48.28L52.0201 49.01L52.0701 49.1H52.9101L54.0501 48.38L52.9701 49L52.5501 48.27L51.3601 47.65V47.66Z" fill="#50C2CC" stroke="#50C2CC" stroke-width="0.3" stroke-miterlimit="10"/>
</svg>
