<svg width="64" height="64" viewBox="0 0 64 64" fill="none" xmlns="http://www.w3.org/2000/svg">
<path d="M16.24 7.90007L18.42 8.27007L19.71 7.35007C20.12 7.06007 20.63 6.94007 21.12 7.03007L26.77 7.98007C27.26 8.06007 27.71 8.34007 27.99 8.74007L28.8 9.88007L30.05 10.0901L31.25 9.23007C31.66 8.94007 32.16 8.82007 32.65 8.91007L34.42 9.21007C35.44 9.38007 36.13 10.3501 35.96 11.3701L34.64 19.1801C34.47 20.1801 33.51 20.8801 32.51 20.7201L30.9 20.4801C30.38 20.4101 29.94 20.1201 29.65 19.7101L28.74 18.4301L27.25 18.1801L25.95 19.1001C25.7 19.2801 25.4 19.3801 25.1 19.4201L23.2 30.6601C24.76 30.9701 25.81 32.4601 25.53 34.1001C25.44 34.6501 25.18 35.1701 24.77 35.6301C24.26 36.2001 24.13 37.0501 24.43 37.7601C24.66 38.3001 24.73 38.8701 24.63 39.4201L22.41 52.5701C22.14 54.1801 20.62 55.2601 19.01 54.9901L12.59 53.9101C10.98 53.6401 9.90003 52.1201 10.17 50.5101L12.37 37.4901C12.49 36.7701 12.86 36.1401 13.41 35.7101C13.64 35.5301 14.25 35.0501 13.73 33.8301C13.51 33.3101 13.44 32.7401 13.54 32.1901L13.57 32.0301C13.83 30.4901 15.25 29.4401 16.78 29.6001L18.67 18.3801C18.36 18.2401 18.08 18.0301 17.88 17.7501L16.74 16.1501C10.78 14.3501 8.86003 16.5001 8.55003 16.9401L7.84003 17.8901L7.40003 17.7001C6.40003 17.2701 5.83003 16.2201 6.01003 15.1501C6.85003 10.3301 11.42 7.09007 16.24 7.90007ZM21.48 18.9201L19.6 30.0601L20.42 30.2001L22.3 19.0601L21.48 18.9201ZM15.19 37.9701L13.57 47.5301L17.94 48.2701C18.71 48.4001 19.23 49.1301 19.1 49.9101C18.97 50.6901 18.24 51.2001 17.46 51.0701L13.09 50.3301L12.98 50.9901C12.98 51.0501 13.01 51.1101 13.07 51.1201L19.49 52.2001C19.55 52.2001 19.61 52.1701 19.62 52.1101L21.82 38.8701C21.46 38.0201 20.82 35.8301 22.66 33.7601C22.72 33.7001 22.74 33.6501 22.75 33.5901C22.75 33.5301 22.72 33.4701 22.66 33.4601L16.5 32.4201C16.44 32.4201 16.38 32.4501 16.37 32.5101L16.35 32.7401C17.2 34.7401 16.76 36.6901 15.19 37.9301C15.19 37.9301 15.18 37.9501 15.18 37.9701H15.19ZM17.92 13.5401C18.3 13.6601 18.65 13.9101 18.89 14.2501L19.98 15.7901L24.64 16.5801L25.94 15.6601C26.35 15.3701 26.85 15.2601 27.34 15.3401L29.61 15.7201C30.1 15.8001 30.53 16.0701 30.83 16.4801L31.73 17.7501L32 17.7901L33 11.8701L32.57 11.8001L31.37 12.6601C30.96 12.9501 30.46 13.0601 29.97 12.9801L27.93 12.6401C27.44 12.5601 27 12.2901 26.71 11.8801L25.9 10.7401L21.03 9.92007L19.73 10.8501C19.32 11.1401 18.83 11.2501 18.34 11.1701L15.77 10.7401C13.53 10.3601 11.37 11.2801 10.05 12.9501C11.87 12.4901 14.42 12.4701 17.93 13.5801L17.92 13.5401Z" fill="#0063C6"/>
<path fill-rule="evenodd" clip-rule="evenodd" d="M43.4824 27.2507C39.5137 27.8141 36.7543 31.4852 37.3169 35.4486C37.8795 39.412 41.5515 42.1702 45.5203 41.6068C48.2556 41.2186 50.4188 39.3539 51.3137 36.9292C51.5527 36.2816 52.2715 35.9503 52.9191 36.1893C53.5668 36.4284 53.8981 37.1472 53.659 37.7948C52.4584 41.048 49.5522 43.5596 45.8716 44.082C40.5376 44.8392 35.5986 41.1322 34.8417 35.8C34.0848 30.4677 37.7971 25.5327 43.1311 24.7756C45.3647 24.4585 47.5321 24.9252 49.3496 25.9664C49.9486 26.3095 50.156 27.0733 49.8129 27.6723C49.4697 28.2714 48.7059 28.4788 48.1069 28.1356C46.755 27.3612 45.1464 27.0146 43.4824 27.2507Z" fill="#50C2CC"/>
<path fill-rule="evenodd" clip-rule="evenodd" d="M58.1339 26.7823C58.5856 27.3755 58.4708 28.2225 57.8776 28.6742L45.3405 38.2196L40.2296 33.6461C39.6739 33.1489 39.6266 32.2954 40.1238 31.7398C40.621 31.1842 41.4744 31.1369 42.03 31.6341L45.4791 34.7205L56.242 26.526C56.8352 26.0743 57.6823 26.1891 58.1339 26.7823Z" fill="#50C2CC"/>
</svg>
