<svg width="64" height="64" viewBox="0 0 64 64" fill="none" xmlns="http://www.w3.org/2000/svg">
<path fill-rule="evenodd" clip-rule="evenodd" d="M44.8447 10.3501C44.8447 9.45263 44.1172 8.7251 43.2197 8.7251C42.3223 8.7251 41.5947 9.45263 41.5947 10.3501V17.1401C41.5947 18.0376 42.3223 18.7651 43.2197 18.7651C44.1172 18.7651 44.8447 18.0376 44.8447 17.1401V10.3501ZM9.34985 29.5051C8.45239 29.5051 7.72485 30.2327 7.72485 31.1301C7.72485 32.0276 8.45239 32.7551 9.34985 32.7551H28.4949V35.2701C28.4949 36.1675 29.2224 36.8951 30.1199 36.8951C31.0173 36.8951 31.7449 36.1675 31.7449 35.2701V26.0601C31.7449 25.1626 31.0173 24.4351 30.1199 24.4351C29.2224 24.4351 28.4949 25.1626 28.4949 26.0601V29.5051H9.34985ZM43.2197 41.9951C44.1172 41.9951 44.8447 42.7227 44.8447 43.6201V54.5301C44.8447 55.4276 44.1172 56.1551 43.2197 56.1551C42.3223 56.1551 41.5947 55.4276 41.5947 54.5301V43.6201C41.5947 42.7227 42.3223 41.9951 43.2197 41.9951ZM31.7449 10.3501C31.7449 9.45263 31.0173 8.7251 30.1199 8.7251C29.2224 8.7251 28.4949 9.45263 28.4949 10.3501V17.1401C28.4949 18.0376 29.2224 18.7651 30.1199 18.7651C31.0173 18.7651 31.7449 18.0376 31.7449 17.1401V10.3501ZM30.1199 41.9951C31.0173 41.9951 31.7449 42.7227 31.7449 43.6201V54.5301C31.7449 55.4276 31.0173 56.1551 30.1199 56.1551C29.2224 56.1551 28.4949 55.4276 28.4949 54.5301V43.6201C28.4949 42.7227 29.2224 41.9951 30.1199 41.9951ZM44.8447 26.0601V29.5051H54.3499C55.2474 29.5051 55.9749 30.2327 55.9749 31.1301C55.9749 32.0276 55.2474 32.7551 54.3499 32.7551H44.8447V35.2701C44.8447 36.1675 44.1172 36.8951 43.2197 36.8951C42.3223 36.8951 41.5947 36.1675 41.5947 35.2701V26.0601C41.5947 25.1626 42.3223 24.4351 43.2197 24.4351C44.1172 24.4351 44.8447 25.1626 44.8447 26.0601Z" fill="#50C2CC"/>
<path fill-rule="evenodd" clip-rule="evenodd" d="M14.8999 11.9751C12.7373 11.9751 10.9749 13.7376 10.9749 15.9001V48.9801C10.9749 51.1445 12.7292 52.9051 14.8999 52.9051H34.1399C35.0373 52.9051 35.7649 53.6326 35.7649 54.5301C35.7649 55.4276 35.0373 56.1551 34.1399 56.1551H14.8999C10.9305 56.1551 7.72485 52.9357 7.72485 48.9801V15.9001C7.72485 11.9426 10.9424 8.7251 14.8999 8.7251H48.7899C52.7592 8.7251 55.9649 11.9445 55.9649 15.9001V48.9701C55.9649 52.9395 52.7454 56.1451 48.7899 56.1451H41.7399C40.8424 56.1451 40.1149 55.4176 40.1149 54.5201C40.1149 53.6226 40.8424 52.8951 41.7399 52.8951H48.7899C50.9543 52.8951 52.7149 51.1407 52.7149 48.9701V15.9001C52.7149 13.7357 50.9605 11.9751 48.7899 11.9751H14.8999Z" fill="#0063C6"/>
</svg>
