<svg width="64" height="64" viewBox="0 0 64 64" fill="none" xmlns="http://www.w3.org/2000/svg">
<path d="M25.4799 40.3599C24.7299 40.3599 24.1299 40.9599 24.1299 41.7099V45.8999C24.1299 46.6499 24.7299 47.2499 25.4799 47.2499C26.2299 47.2499 26.8299 46.6499 26.8299 45.8999V41.7099C26.8299 40.9599 26.2299 40.3599 25.4799 40.3599Z" fill="#50C2CC"/>
<path d="M42.6101 35.3198H38.4201C37.6701 35.3198 37.0701 35.9198 37.0701 36.6698C37.0701 37.4198 37.6701 38.0198 38.4201 38.0198H42.6101C43.3601 38.0198 43.9601 37.4198 43.9601 36.6698C43.9601 35.9198 43.3601 35.3198 42.6101 35.3198Z" fill="#50C2CC"/>
<path d="M25.64 16.5299C25.64 15.7799 25.04 15.1799 24.29 15.1799H20.1C19.35 15.1799 18.75 15.7799 18.75 16.5299C18.75 17.2799 19.35 17.8799 20.1 17.8799H24.29C25.04 17.8799 25.64 17.2799 25.64 16.5299Z" fill="#50C2CC"/>
<path d="M43.9101 15.1799H39.7201C38.9701 15.1799 38.3701 15.7799 38.3701 16.5299C38.3701 17.2799 38.9701 17.8799 39.7201 17.8799H43.9101C44.6601 17.8799 45.2601 17.2799 45.2601 16.5299C45.2601 15.7799 44.6601 15.1799 43.9101 15.1799Z" fill="#50C2CC"/>
<path d="M42.6101 43.02H38.4201C37.6701 43.02 37.0701 43.62 37.0701 44.37C37.0701 45.12 37.6701 45.72 38.4201 45.72H42.6101C43.3601 45.72 43.9601 45.12 43.9601 44.37C43.9601 43.62 43.3601 43.02 42.6101 43.02Z" fill="#50C2CC"/>
<path d="M42.6101 50.6299H38.4201C37.6701 50.6299 37.0701 51.2299 37.0701 51.9799C37.0701 52.7299 37.6701 53.3299 38.4201 53.3299H42.6101C43.3601 53.3299 43.9601 52.7299 43.9601 51.9799C43.9601 51.2299 43.3601 50.6299 42.6101 50.6299Z" fill="#50C2CC"/>
<path d="M50.05 7H13.84C12.27 7 11 8.27 11 9.84V18.28C11 19.85 12.27 21.12 13.84 21.12H50.05C51.62 21.12 52.89 19.85 52.89 18.28V9.84C52.89 8.27 51.62 7 50.05 7ZM13.7 18.28V9.84C13.7 9.76 13.76 9.7 13.84 9.7H30.6V18.42H13.84C13.76 18.42 13.7 18.36 13.7 18.28ZM50.2 18.28C50.2 18.36 50.14 18.42 50.06 18.42H33.3V9.7H50.06C50.14 9.7 50.2 9.76 50.2 9.84V18.28Z" fill="#0063C6"/>
<path d="M49.04 31.3399H18.29C18.29 29.6499 18.65 26.6599 21.28 25.9199V26.7899C21.28 27.5399 21.88 28.1399 22.63 28.1399C23.38 28.1399 23.98 27.5399 23.98 26.7899V25.4199C23.98 24.7399 23.69 24.0999 23.17 23.6599C22.66 23.2299 22 23.0399 21.35 23.1399C16.74 23.8699 15.58 28.2099 15.59 31.3299H14.86C12.73 31.3299 11 33.0599 11 35.1899V53.0799C11 55.2099 12.73 56.9399 14.86 56.9399H49.04C51.17 56.9399 52.9 55.2099 52.9 53.0799V35.1899C52.9 33.0599 51.17 31.3299 49.04 31.3299V31.3399ZM30.84 41.7799H50.2V46.8199H30.84V41.7799ZM50.2 35.1899V39.0799H30.84V34.0399H49.04C49.68 34.0399 50.2 34.5599 50.2 35.1999V35.1899ZM13.7 53.0899V35.1999C13.7 34.5599 14.22 34.0399 14.86 34.0399H28.14V54.2499H14.86C14.22 54.2499 13.7 53.7299 13.7 53.0899ZM49.04 54.2499H30.84V49.5299H50.2V53.0899C50.2 53.7299 49.68 54.2499 49.04 54.2499Z" fill="#0063C6"/>
</svg>
