<svg width="64" height="64" viewBox="0 0 64 64" fill="none" xmlns="http://www.w3.org/2000/svg">
<path d="M54.9401 32.16C54.1901 32.16 53.5901 32.76 53.5901 33.51V47.06C53.5901 47.13 53.5301 47.2 53.4601 47.2L30.3501 48.95V33.02C30.3501 32.27 29.7501 31.67 29.0001 31.67C28.2501 31.67 27.6501 32.27 27.6501 33.02V49L23.8601 48.85V41.14C23.8601 38.55 21.7501 36.44 19.1601 36.44C16.5701 36.44 14.4601 38.55 14.4601 41.14V48.48L11.5401 48.36V32.82C11.5401 32.07 10.9401 31.47 10.1901 31.47C9.44009 31.47 8.84009 32.07 8.84009 32.82V48.36C8.84009 49.81 9.97009 50.99 11.4201 51.05L28.5401 51.74C28.5401 51.74 28.5901 51.74 28.6101 51.74C28.6701 51.74 28.7401 51.73 28.8001 51.72C28.8601 51.72 28.9101 51.75 28.9701 51.75C29.0001 51.75 29.0401 51.75 29.0701 51.75L53.6301 49.89C55.1001 49.78 56.2601 48.53 56.2601 47.06V33.51C56.2601 32.76 55.6601 32.16 54.9101 32.16H54.9401ZM17.1701 41.13C17.1701 40.03 18.0701 39.13 19.1701 39.13C20.2701 39.13 21.1701 40.03 21.1701 41.13V48.73L17.1701 48.57V41.13Z" fill="#0063C6"/>
<path d="M59.1001 29.55L46.6001 12.2C46.0601 11.45 45.1701 11 44.2101 11H44.2001L19.5701 11.07C19.5001 11.06 19.4301 11.04 19.3501 11.04L18.5901 11.07L4.29014 31.61C3.95014 32.11 3.90014 32.74 4.18014 33.28C4.46014 33.83 5.03014 34.17 5.67014 34.18H10.1401C11.0101 34.18 11.8101 33.73 12.2801 33L19.4001 21.9L27.0601 33.35C27.5001 34.01 28.2301 34.4 29.0201 34.4H33.6801C34.0901 34.4 34.4701 34.24 34.7701 33.99L35.6501 34.23C36.0101 34.33 36.3901 34.38 36.7601 34.38C37.6301 34.38 38.4901 34.12 39.2001 33.62C39.6401 33.31 40.2701 33.26 40.7601 33.51L41.4301 33.84C42.6801 34.45 44.1501 34.41 45.3701 33.73L45.5401 33.64C45.9901 33.39 46.5401 33.38 47.0001 33.61L47.1401 33.68C48.5401 34.39 50.2001 34.37 51.5901 33.64L52.2601 33.29L53.1701 33.69C54.7501 34.38 56.5301 34.34 58.0701 33.57C58.8101 33.2 59.3501 32.54 59.5401 31.76C59.7201 31.01 59.5701 30.21 59.1101 29.58L59.1001 29.55ZM29.4501 24.04L27.0701 20.74C27.1901 20.75 27.3101 20.77 27.4301 20.77C27.9401 20.77 28.4501 20.64 28.9101 20.39L30.0501 19.76L33.4101 24.57L32.7801 24.94C32.7001 24.99 32.5901 25 32.4901 24.97L29.4801 23.97L29.4501 24.05V24.04ZM39.7101 17.61C39.6401 17.67 39.4901 17.71 39.3501 17.65L37.6701 16.91L35.4001 13.72H38.2101L40.4801 16.95C40.3301 17.04 40.1901 17.15 40.0701 17.27L39.6901 17.62L39.7101 17.61ZM34.5601 17.19C34.5601 17.19 34.5501 17.19 34.5401 17.19L33.9101 17.65C33.8301 17.71 33.7101 17.73 33.6001 17.69L31.4301 17.02L29.1301 13.73H32.1001L34.5501 17.18L34.5601 17.19ZM28.4901 17.53L27.6001 18.03C27.5201 18.08 27.4001 18.08 27.3001 18.05L24.3701 16.99L22.0401 13.77H25.8501L28.4901 17.54V17.53ZM36.1401 23.76L33.7901 20.41C34.4101 20.39 35.0101 20.21 35.5101 19.84L36.1101 19.4L39.4601 24.12L39.0801 24.42C39.0101 24.48 38.8801 24.5 38.7801 24.47L36.5201 23.83C36.3901 23.79 36.2601 23.78 36.1301 23.76H36.1401ZM44.5201 24.27L42.7201 23.53C42.5801 23.47 42.4301 23.45 42.2801 23.41L40.0901 20.32C40.6301 20.21 41.1401 19.97 41.5501 19.59L41.9301 19.24C41.9301 19.24 42.0201 19.19 42.0701 19.18L45.3201 23.8C45.3201 23.8 45.2701 23.84 45.2401 23.87L44.8801 24.23C44.8101 24.3 44.6601 24.33 44.5301 24.28L44.5201 24.27ZM50.2001 23.98L48.5601 23.27C48.4201 23.21 48.2801 23.16 48.1301 23.12L46.0201 20.12C46.6101 19.95 47.1501 19.62 47.5301 19.13L47.8901 18.66L51.1201 23.16L50.5601 23.92C50.5101 23.99 50.3401 24.04 50.1901 23.98H50.2001ZM44.2001 13.71C44.3101 13.71 44.3801 13.76 44.4001 13.79L46.2601 16.38L45.4101 17.46C45.3601 17.53 45.1901 17.58 45.0301 17.51L43.7701 16.92L41.5101 13.71H44.2001ZM29.2001 31.7L20.7901 19.14V19.12C20.4301 18.62 19.9201 18.36 19.3501 18.34C18.8001 18.34 18.2901 18.64 17.9401 19.16L10.0401 31.48H7.67014L19.3701 14.68L31.6301 31.69H29.2001V31.7ZM36.3501 31.62L34.5601 31.14L32.0301 27.63C32.2201 27.67 32.4201 27.69 32.6101 27.69C33.1501 27.69 33.6801 27.55 34.1601 27.27L34.9701 26.79L38.0401 31.17C37.9101 31.24 37.7801 31.31 37.6601 31.4C37.3001 31.65 36.8101 31.73 36.3601 31.61L36.3501 31.62ZM44.0601 31.36C43.6101 31.61 43.0701 31.62 42.6201 31.4L41.9501 31.07C41.6601 30.93 41.3501 30.83 41.0401 30.76L38.5101 27.14C39.3101 27.24 40.1201 27.05 40.7501 26.55L41.0301 26.33L44.4501 31.16C44.3801 31.2 44.3001 31.23 44.2301 31.27L44.0601 31.36ZM48.3601 31.26L48.2201 31.19C48.0201 31.09 47.8101 31.01 47.6001 30.94L44.8001 26.99C45.5301 26.95 46.2301 26.66 46.7601 26.15L46.8801 26.04L50.4801 31.16L50.3201 31.24C49.7001 31.56 48.9701 31.57 48.3501 31.26H48.3601ZM54.2501 31.21L53.6201 30.93L50.6401 26.7C51.4601 26.62 52.2301 26.21 52.7401 25.54L52.7801 25.48L56.8401 31.15C56.0301 31.56 55.0801 31.58 54.2501 31.22V31.21Z" fill="#50C2CC"/>
</svg>
