<svg width="129" height="152" viewBox="0 0 129 152" fill="none" xmlns="http://www.w3.org/2000/svg">
<path d="M124.195 64C124.195 97.1371 97.3324 124 64.1953 124C31.0582 124 4.19531 97.1371 4.19531 64C4.19531 30.8629 31.0582 4 64.1953 4C97.3324 4 124.195 30.8629 124.195 64Z" fill="#002D72" stroke="#002D72" stroke-width="8"/>
<path d="M89.6677 94.3984L108.196 139.028L87.3538 134.76L87.4268 134.731L75.5245 151.998L56.9961 107.369L89.6677 94.3984Z" fill="#00A3AD"/>
<path d="M75.3953 107.774L56.393 151.998L44.8429 134.626L44.9144 134.656L24.1953 138.623L43.1976 94.3984L75.3953 107.774Z" fill="#50C2CC"/>
<path d="M112.195 64C112.195 66.4788 109.169 68.6921 108.795 71.0663C108.413 73.5042 110.603 76.5395 109.857 78.8364C109.098 81.1733 105.535 82.3418 104.433 84.5005C103.319 86.6819 104.461 90.2501 103.03 92.216C101.593 94.1911 97.8445 94.2029 96.1214 95.926C94.3982 97.6492 94.3864 101.398 92.4114 102.835C90.4454 104.265 86.8773 103.125 84.6958 104.238C82.5144 105.351 81.3686 108.903 79.0317 109.662C76.7348 110.408 73.6995 108.217 71.2616 108.6C68.8874 108.973 66.6741 112 64.1953 112C61.7165 112 59.5033 108.974 57.129 108.6C54.6912 108.217 51.6559 110.408 49.3589 109.662C47.022 108.903 45.8535 105.34 43.6948 104.238C41.5134 103.124 37.9452 104.265 35.9793 102.835C34.0042 101.397 33.9924 97.6492 32.2693 95.926C30.5461 94.2029 26.797 94.1911 25.3603 92.216C23.9236 90.241 25.0702 86.6819 23.9572 84.5005C22.8551 82.3418 19.2924 81.1733 18.5332 78.8364C17.7875 76.5395 19.9781 73.5042 19.5952 71.0663C19.2224 68.6921 16.1953 66.4788 16.1953 64C16.1953 61.5212 19.2215 59.3079 19.5952 56.9337C19.9781 54.4958 17.7875 51.4605 18.5332 49.1636C19.2924 46.8267 22.8551 45.6582 23.9572 43.4995C25.0711 41.3181 23.9299 37.7499 25.3603 35.784C26.7979 33.8089 30.5461 33.7971 32.2693 32.074C33.9924 30.3508 34.0042 26.6017 35.9793 25.165C37.9452 23.7346 41.5134 24.8749 43.6948 23.7619C45.8535 22.6598 47.022 19.0971 49.3589 18.3378C51.6959 17.5786 54.6912 19.7827 57.129 19.3999C59.5033 19.0271 61.7165 16 64.1953 16C66.6741 16 68.8874 19.0262 71.2616 19.3999C73.6995 19.7827 76.7348 17.5922 79.0317 18.3378C81.3686 19.0971 82.5371 22.6598 84.6958 23.7619C86.8773 24.8758 90.4454 23.7346 92.4114 25.165C94.3864 26.6026 94.3982 30.3508 96.1214 32.074C97.8445 33.7971 101.594 33.8089 103.03 35.784C104.461 37.7499 103.32 41.3181 104.433 43.4995C105.535 45.6582 109.098 46.8267 109.857 49.1636C110.603 51.4605 108.413 54.4958 108.795 56.9337C109.168 59.3079 112.195 61.5212 112.195 64Z" fill="#0063C6"/>
<path d="M64.1922 99.2047C83.6326 99.2047 99.3922 83.4451 99.3922 64.0047C99.3922 44.5643 83.6326 28.8047 64.1922 28.8047C44.7518 28.8047 28.9922 44.5643 28.9922 64.0047C28.9922 83.4451 44.7518 99.2047 64.1922 99.2047Z" fill="white"/>
<path d="M64.1953 96C81.8684 96 96.1953 81.6731 96.1953 64C96.1953 46.3269 81.8684 32 64.1953 32C46.5222 32 32.1953 46.3269 32.1953 64C32.1953 81.6731 46.5222 96 64.1953 96Z" fill="#0063C6"/>
<path fill-rule="evenodd" clip-rule="evenodd" d="M84.9953 53.1032L59.6723 82.4L44.1953 64.7153L49.7472 59.5768L59.6378 70.8781L79.4127 48L84.9953 53.1032Z" fill="white"/>
</svg>
